<?xml version="1.0" standalone="no"?>
<!DOCTYPE svg PUBLIC "-//W3C//DTD SVG 20010904//EN"
 "http://www.w3.org/TR/2001/REC-SVG-20010904/DTD/svg10.dtd">
<svg version="1.0" xmlns="http://www.w3.org/2000/svg"
 width="1080.000000pt" height="1080.000000pt" viewBox="0 0 1080.000000 1080.000000"
 preserveAspectRatio="xMidYMid meet">

<g transform="translate(0.000000,1080.000000) scale(0.100000,-0.100000)"
fill="#000000" stroke="none">
<path d="M1080 5415 l0 -1265 4315 0 4315 0 0 1265 0 1265 -4315 0 -4315 0 0
-1265z m8580 -10 l0 -1205 -4257 2 -4258 3 -3 1190 c-1 655 0 1196 3 1203 3 9
865 12 4260 12 l4255 0 0 -1205z"/>
<path d="M4180 6150 c-208 -19 -363 -142 -421 -333 -28 -93 -28 -93 44 -106
141 -24 160 -16 211 92 47 98 134 144 249 134 69 -6 124 -38 157 -93 35 -55
39 -159 10 -244 -39 -117 -98 -188 -407 -501 -311 -314 -313 -316 -313 -412
l0 -47 513 2 512 3 0 92 c0 83 -2 95 -23 115 -22 22 -29 23 -240 26 -128 2
-249 -1 -295 -8 -44 -6 -80 -10 -82 -8 -1 2 90 98 202 213 113 116 232 243
265 284 111 139 154 256 146 402 -8 140 -65 241 -173 311 -99 64 -217 90 -355
78z"/>
<path d="M7615 6149 c-206 -20 -358 -141 -416 -332 -28 -93 -28 -93 44 -106
141 -24 160 -16 211 92 47 98 134 144 249 134 69 -6 124 -38 157 -93 35 -55
39 -159 10 -244 -39 -117 -98 -188 -407 -501 -311 -314 -313 -316 -313 -412
l0 -47 513 2 512 3 0 92 c0 83 -2 95 -23 115 -22 23 -26 23 -265 23 -133 0
-269 -4 -301 -8 l-60 -9 222 229 c240 248 299 317 343 406 87 172 77 366 -28
504 -59 77 -206 147 -328 155 -27 2 -81 1 -120 -3z"/>
<path d="M1750 5390 l0 -750 140 0 140 0 0 330 0 330 350 0 350 0 2 -327 3
-328 138 -3 137 -3 0 751 0 751 -137 -3 -138 -3 -3 -323 -2 -322 -348 2 -347
3 -3 323 -2 322 -140 0 -140 0 0 -750z"/>
<path d="M5450 5391 l0 -751 140 0 140 0 2 293 3 292 69 3 c119 5 89 39 426
-475 71 -108 81 -113 254 -113 127 0 136 1 127 18 -35 66 -388 572 -414 594
-17 14 -30 28 -27 30 3 2 36 19 73 37 182 88 275 281 234 483 -27 131 -97 217
-226 275 -107 48 -165 55 -493 60 l-308 5 0 -751z m647 496 c73 -38 104 -87
110 -175 7 -97 -9 -148 -66 -202 -66 -65 -121 -80 -282 -80 l-129 0 0 246 0
246 158 -4 c148 -3 160 -5 209 -31z"/>
<path d="M8895 4911 c-53 -32 -68 -58 -73 -119 -3 -47 0 -63 20 -92 46 -68
126 -87 204 -49 47 22 84 82 84 135 0 42 -40 104 -80 125 -45 24 -116 24 -155
0z"/>
</g>
</svg>
