<?xml version="1.0" encoding="utf-8"?>
<svg id="master-artboard" viewBox="0 0 1400 980" version="1.1" xmlns="http://www.w3.org/2000/svg" x="0px" y="0px" style="enable-background:new 0 0 336 235.2;" width="1400px" height="980px"><rect id="ee-background" x="0" y="0" width="1400" height="980" style="fill: white; fill-opacity: 0; pointer-events: none;"/>

<g transform="matrix(0.9074074074074074, 0, 0, 0.9074074074074074, 209.99994857223192, 0)"><g transform="translate(0.000000,1080.000000) scale(0.100000,-0.100000)" fill="#000000" stroke="none">
<path d="M 1080 5415 L 1080 4150 L 5395 4150 L 9710 4150 L 9710 5415 L 9710 6680 L 5395 6680 L 1080 6680 L 1080 5415 Z M 9660 5405 L 9660 4200 L 5403 4202 L 1145 4205 L 1142 5395 C 1141 6050 1142 6591 1145 6598 C 1146.2586669921875 6601.77587890625 1298.7276611328125 6604.49609375 1726.0411376953125 6606.38134765625 C 2317.207275390625 6608.9892578125 3434.406494140625 6610 5405 6610 L 9660 6610 L 9660 5405 Z" style="fill: rgb(42, 114, 213); stroke: rgb(255, 204, 94);"/>
<path d="M4180 6150 c-208 -19 -363 -142 -421 -333 -28 -93 -28 -93 44 -106&#10;141 -24 160 -16 211 92 47 98 134 144 249 134 69 -6 124 -38 157 -93 35 -55&#10;39 -159 10 -244 -39 -117 -98 -188 -407 -501 -311 -314 -313 -316 -313 -412&#10;l0 -47 513 2 512 3 0 92 c0 83 -2 95 -23 115 -22 22 -29 23 -240 26 -128 2&#10;-249 -1 -295 -8 -44 -6 -80 -10 -82 -8 -1 2 90 98 202 213 113 116 232 243&#10;265 284 111 139 154 256 146 402 -8 140 -65 241 -173 311 -99 64 -217 90 -355&#10;78z" style="fill: rgb(42, 114, 213); stroke: rgb(255, 204, 94);"/>
<path d="M7615 6149 c-206 -20 -358 -141 -416 -332 -28 -93 -28 -93 44 -106&#10;141 -24 160 -16 211 92 47 98 134 144 249 134 69 -6 124 -38 157 -93 35 -55&#10;39 -159 10 -244 -39 -117 -98 -188 -407 -501 -311 -314 -313 -316 -313 -412&#10;l0 -47 513 2 512 3 0 92 c0 83 -2 95 -23 115 -22 23 -26 23 -265 23 -133 0&#10;-269 -4 -301 -8 l-60 -9 222 229 c240 248 299 317 343 406 87 172 77 366 -28&#10;504 -59 77 -206 147 -328 155 -27 2 -81 1 -120 -3z" style="fill: rgb(42, 114, 213); stroke: rgb(255, 204, 94);"/>
<path d="M1750 5390 l0 -750 140 0 140 0 0 330 0 330 350 0 350 0 2 -327 3&#10;-328 138 -3 137 -3 0 751 0 751 -137 -3 -138 -3 -3 -323 -2 -322 -348 2 -347&#10;3 -3 323 -2 322 -140 0 -140 0 0 -750z" style="fill: rgb(42, 114, 213); stroke: rgb(255, 204, 94);"/>
<path d="M5450 5391 l0 -751 140 0 140 0 2 293 3 292 69 3 c119 5 89 39 426&#10;-475 71 -108 81 -113 254 -113 127 0 136 1 127 18 -35 66 -388 572 -414 594&#10;-17 14 -30 28 -27 30 3 2 36 19 73 37 182 88 275 281 234 483 -27 131 -97 217&#10;-226 275 -107 48 -165 55 -493 60 l-308 5 0 -751z m647 496 c73 -38 104 -87&#10;110 -175 7 -97 -9 -148 -66 -202 -66 -65 -121 -80 -282 -80 l-129 0 0 246 0&#10;246 158 -4 c148 -3 160 -5 209 -31z" style="fill: rgb(42, 114, 213); stroke: rgb(255, 204, 94);"/>
<path d="M8895 4911 c-53 -32 -68 -58 -73 -119 -3 -47 0 -63 20 -92 46 -68&#10;126 -87 204 -49 47 22 84 82 84 135 0 42 -40 104 -80 125 -45 24 -116 24 -155&#10;0z" style="fill: rgb(42, 114, 213); stroke: rgb(255, 204, 94);"/>
</g></g></svg>